<?xml version="1.0" encoding="UTF-8"?>
<!-- Generator: visioncortex VTracer 0.6.3 -->
<svg version="1.1" xmlns="http://www.w3.org/2000/svg" width="570" height="570">
<path d="M0 0 C188.1 0 376.2 0 570 0 C570 188.1 570 376.2 570 570 C381.9 570 193.8 570 0 570 C0 381.9 0 193.8 0 0 Z " fill="#FEFEFE" transform="translate(0,0)"/>
<path d="M0 0 C4.32 0.47 6.97 -0.37 10.88 -2.13 C26.25 -8.41 45.78 -8.38 61 -2 C62.17 -1.55 63.34 -1.11 64.54 -0.64 C71.74 2.23 79.46 5.41 85 11 C85.15 11.85 85.3 12.71 85.45 13.59 C85.72 14.78 85.72 14.78 86 16 C87.64 16.73 89.31 17.38 91 18 C93.16 19.79 95.17 21.57 97.19 23.5 C97.75 24.03 98.31 24.56 98.89 25.1 C104.03 29.96 109.05 34.95 114 40 C113.67 40.99 113.34 41.98 113 43 C96.49 50.94 74.75 52.08 56.9 55.12 C33.35 58.99 33.35 58.99 10.19 64.62 C9.52 64.82 8.85 65.01 8.16 65.21 C4.43 66.36 1.2 67.76 -2 70 C-2.33 70.66 -2.66 71.32 -3 72 C-2.15 72 -1.3 72 -0.43 72 C11.05 71.99 22.52 71.99 34 72 C34.99 72 35.99 72 37.01 72 C49.92 72.01 62.83 72.05 75.74 72.13 C81.39 72.17 87.05 72.19 92.7 72.2 C98.29 72.2 103.88 72.23 109.46 72.27 C111.56 72.29 113.66 72.29 115.77 72.29 C118.68 72.28 121.59 72.31 124.5 72.34 C125.35 72.33 126.2 72.32 127.07 72.31 C133.09 72.43 137.4 74.04 142 78 C143.5 80.81 143.5 80.81 144 83 C124.98 87.36 105.42 87.51 86 88 C86 88.66 86 89.32 86 90 C86.89 89.99 87.77 89.99 88.68 89.98 C96.46 89.94 104.23 89.93 112.01 89.98 C115.84 90 119.68 89.98 123.51 89.94 C132.85 89.98 132.85 89.98 135.8 92.6 C137.06 94.62 137.06 94.62 137.99 96.8 C139.49 100.08 141.94 102.12 144.55 104.55 C151.77 111.74 148.2 135.86 148.23 145.29 C148.23 147.31 148.24 149.33 148.24 151.36 C148.24 154.08 148.26 156.79 148.28 159.51 C148.45 180.09 147.31 198.27 140.94 217.94 C140.55 219.16 140.16 220.38 139.76 221.63 C134.6 237.68 128.78 253.49 122.23 269.02 C121.01 271.98 119.85 274.95 118.71 277.93 C107.1 307.8 85.82 325.77 56.89 338.87 C45.42 343.9 33.75 347.89 21.69 351.25 C20.77 351.51 19.85 351.77 18.9 352.03 C8.96 354.73 1.34 355.36 -8.75 353 C-9.75 352.77 -10.75 352.54 -11.78 352.31 C-39.61 345.74 -66.08 334.64 -88 316 C-88.56 315.56 -89.12 315.13 -89.69 314.68 C-101.83 305.14 -109.32 291.73 -114.25 277.38 C-114.71 276.07 -115.17 274.77 -115.64 273.47 C-116.86 270.02 -118.06 266.57 -119.26 263.12 C-120.74 258.88 -122.24 254.65 -123.74 250.41 C-125.01 246.83 -126.26 243.24 -127.49 239.64 C-129.8 232.93 -132.2 226.39 -135.17 219.94 C-144.39 199.27 -144.39 179.52 -144.1 157.16 C-143.99 148.96 -144.08 140.78 -144.23 132.58 C-144.29 129.07 -144.34 125.55 -144.39 122.04 C-144.42 119.77 -144.46 117.51 -144.51 115.24 C-144.58 112.09 -144.6 108.94 -144.62 105.79 C-144.65 104.85 -144.68 103.92 -144.71 102.95 C-144.7 100.49 -144.64 98.38 -144 96 C-139.54 92 -139.54 92 -136 92 C-136.35 91.15 -136.7 90.31 -137.06 89.44 C-138.18 85.34 -138.26 83.07 -137 79 C-133.76 75.52 -130.39 74.07 -125.81 73.19 C-123.68 72.62 -123.68 72.62 -122 71 C-120.86 67.78 -120.12 64.66 -119.43 61.32 C-117.06 49.94 -111.01 42.21 -103 34 C-102.28 33.23 -101.55 32.45 -100.81 31.66 C-94.55 25.12 -87.51 20.01 -80 15 C-79.53 13.8 -79.53 13.8 -79.05 12.58 C-76.45 6.21 -69.03 3.37 -63.03 0.81 C-41.82 -7.89 -21.6 -8.65 0 0 Z " fill="#090A0A" transform="translate(282,107)"/>
<path d="M0 0 C6.51 0.01 13.01 0 19.52 -0 C71.39 -0.04 71.39 -0.04 94.59 1.13 C96.2 1.2 97.81 1.28 99.42 1.35 C103.23 1.53 107.03 1.76 110.84 2.01 C112.67 2.1 112.67 2.1 114.55 2.2 C129.69 3.17 129.69 3.17 135.2 7.36 C139.95 13.43 138.93 21.55 138.9 28.82 C138.9 30.12 138.89 31.43 138.89 32.77 C138.77 42.27 138.01 51.3 136.1 60.6 C135.5 63.54 134.96 66.5 134.42 69.46 C134 71.68 133.57 73.91 133.15 76.13 C132.96 77.16 132.76 78.18 132.57 79.24 C130.33 90.49 127.22 99.47 119.59 108.13 C118.83 109.02 118.08 109.9 117.3 110.82 C111.58 117.35 105.42 122.8 98.59 128.13 C97.78 128.81 96.96 129.49 96.13 130.19 C86.63 138.09 74.17 148.16 61.25 147.65 C51.2 145.68 43.26 136.43 36.12 129.59 C21.02 114.56 21.02 114.56 1.53 107.69 C-12.36 109.24 -22.01 119.59 -31.68 128.81 C-35.99 132.89 -40.43 136.72 -45.1 140.38 C-45.68 140.83 -46.25 141.29 -46.85 141.75 C-52.84 146.38 -56.86 148.1 -64.41 147.13 C-67.63 146.16 -70.47 144.73 -73.41 143.13 C-74.36 142.62 -75.32 142.11 -76.3 141.59 C-89.14 134.41 -100.17 124.64 -110.41 114.13 C-111.11 113.46 -111.81 112.8 -112.53 112.11 C-125.83 99.3 -128.73 84.37 -131.94 66.7 C-132.24 65.05 -132.56 63.4 -132.88 61.74 C-135.01 50.77 -135.71 40 -135.79 28.82 C-135.8 27.57 -135.82 26.32 -135.83 25.04 C-135.79 17.29 -135.71 11.6 -130.17 5.77 C-126.8 3.76 -124.25 3.35 -120.35 2.94 C-119.64 2.87 -118.94 2.79 -118.21 2.72 C-115.95 2.5 -113.68 2.31 -111.41 2.13 C-110.4 2.05 -110.4 2.05 -109.36 1.97 C-73.04 -0.62 -36.38 -0.03 0 0 Z " fill="#FDFDFD" transform="translate(283.412353515625,227.86962890625)"/>
<path d="M0 0 C2.53 1.4 5.05 2.74 7.65 4 C25.6 12.86 25.6 12.86 27.08 17.17 C28.67 20.7 30.73 21.92 33.9 24.13 C51.23 36.83 67.22 53.97 73.2 75.07 C74 77.87 74 77.87 76.04 79.07 C77.05 79.44 77.05 79.44 78.09 79.82 C82.56 81.79 84.6 83.69 87.27 87.82 C87.44 89.01 87.6 90.21 87.77 91.44 C87.9 94.96 87.9 94.96 90.65 96.69 C94.45 99.77 95.33 103.17 96.27 107.82 C96.8 113.96 96.89 120.09 96.96 126.25 C96.99 128.09 97.02 129.93 97.05 131.76 C97.13 136.73 97.19 141.69 97.24 146.66 C97.27 149.89 97.32 153.12 97.37 156.35 C97.46 161.88 97.52 167.42 97.56 172.95 C97.58 175.08 97.6 177.21 97.63 179.33 C97.93 200.08 94.29 218.22 87.52 237.75 C86.99 239.33 86.45 240.9 85.92 242.47 C82.22 253.31 78.35 264.07 74.11 274.71 C73.32 276.71 72.54 278.71 71.77 280.71 C70.32 284.43 68.82 288.13 67.27 291.82 C66.95 292.59 66.62 293.37 66.29 294.17 C58.68 312.13 49.44 326.43 36.27 340.82 C35.6 341.58 34.92 342.33 34.23 343.12 C13.66 365.1 -16.32 377.84 -44.73 385.82 C-46.59 386.34 -46.59 386.34 -48.48 386.88 C-59.44 389.72 -67.97 387.75 -78.73 384.69 C-80.38 384.22 -80.38 384.22 -82.07 383.74 C-103.08 377.63 -122.39 368.22 -139.73 354.82 C-141.21 353.67 -141.21 353.67 -142.72 352.5 C-178.08 324.3 -191.93 281.69 -206.29 240.38 C-206.66 239.32 -206.66 239.32 -207.04 238.25 C-213.63 219.45 -218.15 199.89 -217.98 179.88 C-217.97 178.72 -217.96 177.55 -217.96 176.35 C-217.83 163.5 -217.44 150.66 -217.03 137.82 C-216.95 135.33 -216.88 132.84 -216.81 130.35 C-216.71 126.8 -216.58 123.25 -216.46 119.71 C-216.43 118.64 -216.4 117.58 -216.37 116.48 C-216.13 110.3 -215.55 104.41 -212.73 98.82 C-211.46 97.83 -211.46 97.83 -210.16 96.82 C-207.33 94.49 -207.38 93.9 -206.85 90.44 C-206.04 85.77 -204.3 83.85 -200.6 81 C-198.73 79.82 -198.73 79.82 -195.48 78.57 C-191.72 76.17 -191.67 73.94 -190.61 69.76 C-184.81 50.51 -166.63 33.09 -150.68 21.53 C-148.59 19.88 -148.59 19.88 -147.31 17.36 C-142.98 10.4 -133.89 6.64 -126.42 3.94 C-123.04 2.53 -119.94 0.73 -116.79 -1.12 C-80.72 -22.11 -35.95 -19.97 0 0 Z M-120.73 7.82 C-121.7 8.21 -122.67 8.61 -123.67 9.02 C-130.13 11.72 -136.55 15.03 -141.73 19.82 C-142.4 21.48 -143.07 23.15 -143.73 24.82 C-145.47 26.23 -145.47 26.23 -147.6 27.44 C-154.02 31.45 -159.27 36.63 -164.73 41.82 C-165.47 42.48 -166.22 43.13 -166.99 43.81 C-175.59 51.67 -180.45 61.16 -182.6 72.44 C-183.93 79.2 -183.93 79.2 -187.01 81.57 C-189.57 82.53 -192.07 83.19 -194.73 83.82 C-198.51 86.06 -199.48 86.94 -200.66 91.19 C-200.73 94.91 -200.14 97.4 -198.73 100.82 C-199.68 101.11 -200.62 101.39 -201.6 101.69 C-204.78 102.58 -204.78 102.58 -206.73 104.82 C-207.02 106.72 -207.02 106.72 -206.97 108.93 C-206.97 109.79 -206.98 110.65 -206.98 111.54 C-206.97 112.49 -206.96 113.44 -206.96 114.41 C-206.96 115.4 -206.96 116.4 -206.96 117.42 C-206.96 120.72 -206.94 124.02 -206.91 127.32 C-206.91 128.45 -206.9 129.59 -206.89 130.75 C-206.85 135.5 -206.82 140.25 -206.77 145 C-206.72 151.93 -206.76 158.85 -206.92 165.78 C-207.49 192.08 -205.14 213.33 -194.46 237.49 C-191.35 244.53 -188.9 251.7 -186.48 259 C-185.69 261.32 -184.89 263.64 -184.09 265.95 C-183.71 267.07 -183.32 268.2 -182.92 269.36 C-175.88 291.89 -175.88 291.89 -163.73 311.82 C-163.01 312.71 -162.3 313.61 -161.57 314.54 C-154.7 322.69 -146.44 328.77 -137.73 334.82 C-136.19 335.9 -136.19 335.9 -134.62 337 C-115.91 349.3 -93.5 356.7 -71.85 361.82 C-70.92 362.05 -70 362.28 -69.04 362.52 C-61.81 364.12 -55.9 363.47 -48.73 361.82 C-47.72 361.59 -46.72 361.36 -45.68 361.13 C-30.35 357.51 -15.91 352.66 -1.73 345.82 C-1.02 345.48 -0.32 345.14 0.4 344.8 C30.55 330.12 47.1 310.15 59.01 279.07 C60.24 275.89 61.54 272.75 62.86 269.6 C68.7 255.7 73.52 241.42 78.09 227.07 C78.65 225.35 78.65 225.35 79.22 223.59 C85.2 204.44 85.7 186.24 85.54 166.29 C85.52 163.58 85.51 160.86 85.51 158.14 C85.49 146.67 85.46 135.18 84.97 123.72 C84.92 122.47 84.87 121.23 84.81 119.94 C83.93 114.83 81.2 111.99 77.27 108.82 C74.94 106.82 74.19 105.61 72.97 102.68 C71.57 99.58 71.57 99.58 68.61 99.01 C67.44 98.99 66.28 98.97 65.09 98.94 C64.43 98.92 63.77 98.9 63.1 98.88 C60.49 98.82 57.88 98.82 55.27 98.82 C53.99 98.81 52.71 98.8 51.39 98.8 C42.02 98.74 32.65 98.76 23.27 98.82 C23.27 98.16 23.27 97.5 23.27 96.82 C24.01 96.8 24.75 96.79 25.51 96.77 C39.56 96.47 53.48 95.9 67.46 94.38 C69.2 94.2 69.2 94.2 70.97 94.01 C72.03 93.88 73.09 93.76 74.19 93.63 C75.13 93.52 76.06 93.42 77.03 93.3 C79.46 92.99 79.46 92.99 81.27 90.82 C79.05 86.11 76.03 83.73 71.27 81.82 C68.14 81.27 65.07 81.25 61.89 81.27 C60.97 81.26 60.05 81.25 59.11 81.24 C56.08 81.21 53.05 81.21 50.02 81.21 C47.87 81.19 45.73 81.18 43.59 81.16 C37.92 81.11 32.26 81.09 26.59 81.08 C20.97 81.06 15.35 81.02 9.73 80.98 C-15.42 80.81 -40.57 80.78 -65.73 80.82 C-62.82 77.79 -60.71 76.12 -56.73 74.75 C-55.88 74.45 -55.04 74.15 -54.16 73.84 C-45.32 71.2 -36.37 69.28 -27.28 67.73 C-26.22 67.55 -25.17 67.36 -24.08 67.17 C-20.73 66.59 -17.39 66.02 -14.04 65.44 C-0.7 63.14 12.63 60.8 25.91 58.17 C26.94 57.97 27.96 57.77 29.01 57.56 C36.27 56.1 43.29 54.3 50.27 51.82 C50.67 47.95 50.67 47.95 48.84 45.9 C47.85 44.92 47.85 44.92 46.84 43.92 C46.11 43.19 45.37 42.46 44.62 41.71 C43.85 40.96 43.07 40.21 42.27 39.44 C41.53 38.7 40.79 37.96 40.02 37.19 C32.66 29.02 32.66 29.02 23.27 24.82 C23.22 24.07 23.16 23.33 23.11 22.57 C21.42 16.99 15.09 14.55 10.27 11.82 C6.35 9.88 2.38 8.31 -1.73 6.82 C-2.67 6.42 -3.62 6.03 -4.6 5.62 C-19.84 -0.06 -37.57 1.61 -52.73 6.82 C-53.74 7.38 -53.74 7.38 -54.78 7.95 C-60.15 10.34 -65.51 8.16 -70.73 6.38 C-87.17 0.86 -104.86 0.4 -120.73 7.82 Z " fill="#F5F6F6" transform="translate(344.7265625,98.18359375)"/>
<path d="M0 0 C2.53 1.4 5.05 2.74 7.65 4 C25.6 12.86 25.6 12.86 27.08 17.17 C28.67 20.7 30.73 21.92 33.9 24.13 C51.23 36.83 67.22 53.97 73.2 75.07 C74 77.87 74 77.87 76.04 79.07 C77.05 79.44 77.05 79.44 78.09 79.82 C82.56 81.79 84.6 83.69 87.27 87.82 C87.44 89.01 87.6 90.21 87.77 91.44 C87.9 94.96 87.9 94.96 90.65 96.69 C94.45 99.77 95.33 103.17 96.27 107.82 C96.8 113.96 96.89 120.09 96.96 126.25 C96.99 128.09 97.02 129.93 97.05 131.76 C97.13 136.73 97.19 141.69 97.24 146.66 C97.27 149.89 97.32 153.12 97.37 156.35 C97.46 161.88 97.52 167.42 97.56 172.95 C97.58 175.08 97.6 177.21 97.63 179.33 C97.93 200.08 94.29 218.22 87.52 237.75 C86.99 239.33 86.45 240.9 85.92 242.47 C82.22 253.31 78.35 264.07 74.11 274.71 C73.32 276.71 72.54 278.71 71.77 280.71 C70.32 284.43 68.82 288.13 67.27 291.82 C66.95 292.59 66.62 293.37 66.29 294.17 C58.68 312.13 49.44 326.43 36.27 340.82 C35.6 341.58 34.92 342.33 34.23 343.12 C13.66 365.1 -16.32 377.84 -44.73 385.82 C-46.59 386.34 -46.59 386.34 -48.48 386.88 C-59.44 389.72 -67.97 387.75 -78.73 384.69 C-80.38 384.22 -80.38 384.22 -82.07 383.74 C-103.08 377.63 -122.39 368.22 -139.73 354.82 C-141.21 353.67 -141.21 353.67 -142.72 352.5 C-178.08 324.3 -191.93 281.69 -206.29 240.38 C-206.66 239.32 -206.66 239.32 -207.04 238.25 C-213.63 219.45 -218.15 199.89 -217.98 179.88 C-217.97 178.72 -217.96 177.55 -217.96 176.35 C-217.83 163.5 -217.44 150.66 -217.03 137.82 C-216.95 135.33 -216.88 132.84 -216.81 130.35 C-216.71 126.8 -216.58 123.25 -216.46 119.71 C-216.43 118.64 -216.4 117.58 -216.37 116.48 C-216.13 110.3 -215.55 104.41 -212.73 98.82 C-211.46 97.83 -211.46 97.83 -210.16 96.82 C-207.33 94.49 -207.38 93.9 -206.85 90.44 C-206.04 85.77 -204.3 83.85 -200.6 81 C-198.73 79.82 -198.73 79.82 -195.48 78.57 C-191.72 76.17 -191.67 73.94 -190.61 69.76 C-184.81 50.51 -166.63 33.09 -150.68 21.53 C-148.59 19.88 -148.59 19.88 -147.31 17.36 C-142.98 10.4 -133.89 6.64 -126.42 3.94 C-123.04 2.53 -119.94 0.73 -116.79 -1.12 C-80.72 -22.11 -35.95 -19.97 0 0 Z M-115.96 2.9 C-118.34 4.14 -120.75 5.32 -123.16 6.5 C-136.27 12.46 -136.27 12.46 -146.18 22.28 C-147.89 25.08 -149.54 26.49 -152.16 28.44 C-168.51 41.18 -183.83 56.6 -189.67 77.12 C-190.96 80.4 -191.95 80.96 -195.1 82.38 C-199.01 84.36 -201.46 85.92 -203.73 89.82 C-204.25 91.83 -204.67 93.85 -205.09 95.89 C-206.11 98.98 -208.36 100.69 -210.73 102.82 C-211.63 105.52 -211.86 107.13 -211.89 109.91 C-211.91 110.75 -211.92 111.58 -211.93 112.44 C-211.94 113.35 -211.94 114.26 -211.95 115.2 C-211.96 116.17 -211.97 117.13 -211.99 118.12 C-212.1 128.26 -212.14 138.39 -212.19 148.52 C-212.21 153.31 -212.25 158.1 -212.31 162.89 C-212.38 168.7 -212.42 174.51 -212.43 180.31 C-212.44 182.51 -212.46 184.71 -212.5 186.9 C-212.71 201.11 -211.05 212.63 -205.56 225.78 C-204.36 228.71 -203.39 231.68 -202.43 234.69 C-202.09 235.7 -201.76 236.71 -201.42 237.75 C-201.09 238.76 -200.76 239.77 -200.41 240.82 C-196.83 251.65 -193.06 262.41 -189.18 273.14 C-187.02 279.15 -184.95 285.16 -183.04 291.25 C-176.72 310.3 -163.19 328.14 -147.73 340.82 C-147.24 341.22 -146.75 341.63 -146.25 342.05 C-124.88 359.73 -100.58 370.83 -73.98 378.25 C-73.06 378.51 -72.14 378.77 -71.2 379.04 C-62.72 381.32 -55.97 380.94 -47.54 378.75 C-46.67 378.53 -45.8 378.31 -44.91 378.08 C-29.43 373.99 -14.74 368.58 -0.73 360.82 C0.22 360.29 0.22 360.29 1.19 359.76 C36.23 340.25 56.57 312.26 69.27 274.77 C70.46 271.25 71.69 267.74 72.92 264.24 C73.55 262.43 74.17 260.62 74.78 258.8 C76.62 253.35 78.59 247.99 80.81 242.69 C92.58 214.35 94.17 188.49 93.41 158.07 C93.31 153.41 93.28 148.74 93.25 144.08 C93.21 138.48 93.14 132.88 93.06 127.27 C93.05 126.22 93.03 125.17 93.02 124.09 C92.97 121.13 92.91 118.17 92.84 115.21 C92.82 114.34 92.81 113.47 92.8 112.58 C92.65 107.63 92.03 104.1 89.27 99.82 C87.94 99.15 86.61 98.48 85.27 97.82 C84.73 95.64 84.73 95.64 84.52 93.07 C83.84 88.77 82.9 86.93 79.4 84.32 C77.34 82.97 75.47 81.89 73.16 81.03 C70.34 79.22 69.99 77.08 68.96 73.94 C61.75 54.2 46.48 36.98 29.03 25.36 C27.27 23.82 27.27 23.82 25.41 20.91 C20.83 14.28 12.95 10.08 5.38 7.64 C2.6 6.55 0.19 5.05 -2.35 3.5 C-37.65 -17.46 -80.33 -15.81 -115.96 2.9 Z " fill="#161616" transform="translate(344.7265625,98.18359375)"/>
<path d="M0 0 C0.99 0.5 0.99 0.5 2 1 C1.67 1.66 1.34 2.32 1 3 C6.61 3.33 12.22 3.66 18 4 C18 4.33 18 4.66 18 5 C16.79 5.01 15.58 5.03 14.34 5.04 C3.54 5.3 -5.03 6.6 -15 11 C-15.99 11.41 -16.97 11.81 -17.99 12.23 C-23.93 14.77 -30.19 17.6 -35 22 C-35.31 22.81 -35.62 23.62 -35.93 24.45 C-37.32 27.77 -39.03 28.77 -42 30.75 C-47.77 34.76 -52.88 39.19 -58 44 C-58.7 44.61 -59.4 45.22 -60.12 45.86 C-68.77 53.76 -73.71 63.28 -75.94 74.62 C-77.3 81.39 -77.3 81.39 -80.03 83.76 C-82.34 84.73 -84.57 85.39 -87 86 C-90.5 87.63 -90.5 87.63 -93 90 C-94.28 94.6 -94.02 98.37 -93 103 C-93.81 103.4 -93.81 103.4 -94.64 103.8 C-95.36 104.16 -96.08 104.51 -96.81 104.88 C-97.52 105.22 -98.23 105.57 -98.96 105.93 C-101.21 107.07 -101.21 107.07 -104 109 C-104.74 112.57 -104.74 112.57 -105 116 C-105.33 116 -105.66 116 -106 116 C-106.29 110.39 -106.13 106.88 -103 102 C-101.51 101.01 -101.51 101.01 -100 100 C-99.13 97.99 -99.13 97.99 -98.56 95.69 C-97.3 91.68 -96.11 88.95 -93 86 C-91.69 85.49 -90.38 84.99 -89.06 84.5 C-86.06 83.12 -85.14 82.27 -83.62 79.28 C-82.81 77.03 -82.02 74.76 -81.25 72.49 C-74.83 54.51 -58.43 37.97 -42.75 27.55 C-40.78 25.95 -40.78 25.95 -39.13 23.09 C-34.18 15.91 -25.62 11.96 -17.59 9.07 C-13.34 7.31 -9.49 4.88 -5.57 2.49 C-3 1 -3 1 0 0 Z " fill="#CACACA" transform="translate(239,96)"/>
<path d="M0 0 C0 27.72 0 55.44 0 84 C-0.99 84.5 -0.99 84.5 -2 85 C-2.05 86.2 -2.1 87.41 -2.15 88.65 C-2.22 90.22 -2.3 91.8 -2.38 93.38 C-2.41 94.17 -2.44 94.96 -2.47 95.78 C-2.77 101.77 -2.77 101.77 -5 104 C-5.02 91.86 -5.04 79.73 -5.05 67.59 C-5.06 61.96 -5.06 56.32 -5.08 50.69 C-5.09 45.25 -5.09 39.81 -5.09 34.37 C-5.1 32.3 -5.1 30.22 -5.11 28.15 C-5.11 25.24 -5.11 22.33 -5.11 19.42 C-5.12 18.57 -5.12 17.72 -5.12 16.84 C-5.1 4.42 -5.1 4.42 -2.5 1.06 C-1 0 -1 0 0 0 Z " fill="#F8F8F8" transform="translate(138,202)"/>
<path d="M0 0 C0.33 0 0.66 0 1 0 C1.09 9.97 1.16 19.94 1.21 29.91 C1.23 34.54 1.26 39.17 1.3 43.8 C1.35 48.27 1.37 52.73 1.38 57.2 C1.39 58.91 1.4 60.61 1.42 62.32 C1.45 64.7 1.46 67.09 1.45 69.48 C1.47 70.18 1.48 70.89 1.5 71.62 C1.47 74.98 1.2 76.74 -0.84 79.47 C-3 81 -3 81 -6 81 C-5.89 78.23 -5.76 75.46 -5.62 72.69 C-5.58 71.51 -5.58 71.51 -5.53 70.31 C-5.49 69.55 -5.45 68.79 -5.41 68.01 C-5.37 66.97 -5.37 66.97 -5.32 65.9 C-4.91 63.44 -3.77 61.77 -2 60 C-2.29 57.66 -2.62 55.33 -3 53 C-3.33 53 -3.66 53 -4 53 C-4 38.15 -4 23.3 -4 8 C-3.01 8 -2.02 8 -1 8 C-1.02 6.87 -1.04 5.73 -1.06 4.56 C-1 1 -1 1 0 0 Z " fill="#FCFCFC" transform="translate(435,228)"/>
<path d="M0 0 C0.33 0 0.66 0 1 0 C0.74 2.69 0.39 5.33 0 8 C-0.14 9.08 -0.28 10.17 -0.42 11.29 C-1.9 20.13 -1.9 20.13 -4.99 22.58 C-7.3 23.56 -9.59 24.3 -12 25 C-15.5 26.63 -15.5 26.63 -18 29 C-19.28 33.6 -19.02 37.37 -18 42 C-18.81 42.4 -18.81 42.4 -19.64 42.8 C-20.36 43.16 -21.08 43.51 -21.81 43.88 C-22.52 44.22 -23.23 44.57 -23.96 44.93 C-26.21 46.07 -26.21 46.07 -29 48 C-29.74 51.57 -29.74 51.57 -30 55 C-30.33 55 -30.66 55 -31 55 C-31.29 49.39 -31.13 45.88 -28 41 C-27.01 40.34 -26.02 39.68 -25 39 C-24.13 36.99 -24.13 36.99 -23.56 34.69 C-22.3 30.68 -21.11 27.95 -18 25 C-16.69 24.49 -15.38 23.99 -14.06 23.5 C-10.97 22.1 -10.11 21.22 -8.55 18.14 C-7.72 15.87 -6.92 13.58 -6.16 11.29 C-4.65 7 -2.61 3.7 0 0 Z " fill="#DBDBDB" transform="translate(164,157)"/>
<path d="M0 0 C4.26 1.67 8.05 3.58 11.94 6 C14.88 7.82 17.58 9.32 20.88 10.38 C29.41 13.32 36.15 18.51 41 26 C43.13 27.99 43.13 27.99 45.5 29.69 C51.67 34.43 57.32 39.69 63 45 C62.01 45.66 61.02 46.32 60 47 C59.11 46.07 58.21 45.14 57.29 44.18 C51.17 37.91 45.41 32.01 37.79 27.53 C35.45 25.53 35.46 23.97 35 21 C32.79 19.91 32.79 19.91 30 19 C28.48 17.86 28.48 17.86 26.94 16.69 C22.07 13.11 16.63 11.1 11 9 C10 8.61 9 8.23 7.97 7.83 C-1.27 4.6 -10.31 4.22 -20 4 C-20 3.67 -20 3.34 -20 3 C-13.73 3 -7.46 3 -1 3 C-0.67 2.01 -0.34 1.02 0 0 Z " fill="#D0D0D0" transform="translate(332,97)"/>
<path d="M0 0 C3.69 2.46 3.93 3.78 5 8 C5.41 12.56 5.33 17.12 5.31 21.69 C5.31 22.97 5.31 24.26 5.31 25.58 C5.2 35.96 4.12 45.86 2 56 C1.67 56 1.34 56 1 56 C1 49.73 1 43.46 1 37 C0.34 36.67 -0.32 36.34 -1 36 C-0.92 35.41 -0.83 34.81 -0.75 34.2 C-0.03 28.41 -0.11 23.13 -0.84 17.35 C-1 15 -1 15 0 12 C-0.26 9.98 -0.52 7.96 -0.81 5.94 C-1.02 3.75 -0.77 2.06 0 0 Z " fill="#F8F8F8" transform="translate(417,235)"/>
<path d="M0 0 C0.33 0 0.66 0 1 0 C1.33 6.27 1.66 12.54 2 19 C2.33 14.05 2.66 9.1 3 4 C3.33 4 3.66 4 4 4 C4.12 13.18 3.97 22.33 3.56 31.5 C3.52 32.42 3.48 33.34 3.44 34.28 C3.19 39.57 2.73 44.76 2 50 C1.67 50 1.34 50 1 50 C0.67 63.2 0.34 76.4 0 90 C-0.33 90 -0.66 90 -1 90 C-2.24 84.19 -2.19 78.47 -2.19 72.56 C-2.19 71.37 -2.19 70.18 -2.19 68.95 C-2.11 45.96 -0.92 22.97 0 0 Z " fill="#303030" transform="translate(129,206)"/>
<path d="M0 0 C0.33 0 0.66 0 1 0 C1.87 33.01 2.13 65.98 2 99 C0.51 99.5 0.51 99.5 -1 100 C-1.66 99.67 -2.32 99.34 -3 99 C-2.67 92.4 -2.34 85.8 -2 79 C-1.34 79 -0.68 79 0 79 C0 52.93 0 26.86 0 0 Z " fill="#D2D2D2" transform="translate(137,207)"/>
<path d="M0 0 C0.33 1.32 0.66 2.64 1 4 C1.66 4 2.32 4 3 4 C3 16.87 3 29.74 3 43 C3.66 43 4.32 43 5 43 C7.12 49.62 7.12 49.62 6 53 C5.36 55.07 5.36 55.07 5 57 C5.33 57.33 5.66 57.66 6 58 C6.04 60 6.04 62 6 64 C4.68 64 3.36 64 2 64 C1.01 67.47 1.01 67.47 0 71 C-0.88 68.45 -0.99 66.94 -0.53 64.24 C0 61 0.12 58 0.11 54.72 C0.11 53.5 0.11 52.28 0.11 51.02 C0.11 49.72 0.1 48.41 0.1 47.07 C0.1 45.71 0.09 44.35 0.09 42.99 C0.09 39.43 0.08 35.87 0.07 32.31 C0.06 28.67 0.05 25.03 0.05 21.39 C0.04 14.26 0.02 7.13 0 0 Z " fill="#F1F1F1" transform="translate(441,237)"/>
<path d="M0 0 C0 0.33 0 0.66 0 1 C-4.29 1.33 -8.58 1.66 -13 2 C-13 2.33 -13 2.66 -13 3 C-29.07 3.09 -45.12 2.81 -61.19 2.5 C-63.8 2.45 -66.41 2.4 -69.02 2.36 C-75.35 2.24 -81.67 2.12 -88 2 C-88 1.67 -88 1.34 -88 1 C-80.81 0.87 -73.62 0.74 -66.42 0.61 C-63.08 0.55 -59.74 0.49 -56.4 0.43 C-37.59 0.08 -18.81 -0.07 0 0 Z " fill="#262827" transform="translate(416,180)"/>
<path d="M0 0 C0.33 0 0.66 0 1 0 C1 7.92 1 15.84 1 24 C0.34 24 -0.32 24 -1 24 C-0.93 24.89 -0.86 25.77 -0.78 26.68 C-0.05 36.47 0.11 46.18 0 56 C-0.66 56 -1.32 56 -2 56 C-2 39.5 -2 23 -2 6 C-1.67 6 -1.34 6 -1 6 C-0.67 4.02 -0.34 2.04 0 0 Z " fill="#181818" transform="translate(131,248)"/>
<path d="M0 0 C0.69 0.03 1.39 0.06 2.1 0.09 C3.76 0.19 5.41 0.4 7.06 0.62 C7.56 1.62 7.56 1.62 8.06 2.62 C3.66 2.65 -0.75 2.67 -5.16 2.68 C-6.65 2.68 -8.14 2.69 -9.63 2.7 C-20.11 2.76 -30.49 2.41 -40.94 1.62 C-40.94 1.29 -40.94 0.97 -40.94 0.62 C-27.26 -0.39 -13.7 -0.71 0 0 Z " fill="#1F2120" transform="translate(408.9375,197.375)"/>
<path d="M0 0 C0.33 0 0.66 0 1 0 C1.33 16.3 1.35 32 -2 48 C-2.33 48 -2.66 48 -3 48 C-3 41.73 -3 35.46 -3 29 C-3.66 28.67 -4.32 28.34 -5 28 C-4.67 25.69 -4.34 23.38 -4 21 C-3.01 21 -2.02 21 -1 21 C-0.67 14.07 -0.34 7.14 0 0 Z " fill="#DEDEDE" transform="translate(421,243)"/>
<path d="M0 0 C0.99 0.66 1.98 1.32 3 2 C2.67 6.95 2.34 11.9 2 17 C1.34 17 0.68 17 0 17 C0.34 18.39 0.34 18.39 0.69 19.81 C0.79 20.86 0.89 21.92 1 23 C0.01 23.99 -0.98 24.98 -2 26 C-2.33 18.08 -2.66 10.16 -3 2 C-2.01 2 -1.02 2 0 2 C0 1.34 0 0.68 0 0 Z " fill="#FCFCFC" transform="translate(432,208)"/>
<path d="M0 0 C0.33 0.66 0.66 1.32 1 2 C1.66 2 2.32 2 3 2 C3 1.34 3 0.68 3 0 C3.99 0.33 4.98 0.66 6 1 C-7.51 20.36 -7.51 20.36 -16 25 C-15.19 21.56 -15.19 21.56 -14 18 C-13.01 17.67 -12.02 17.34 -11 17 C-11.33 16.34 -11.66 15.68 -12 15 C-10.58 14.6 -10.58 14.6 -9.12 14.19 C-5.75 13.25 -5.75 13.25 -4 10 C-4 9.01 -4 8.02 -4 7 C-3.01 7.33 -2.02 7.66 -1 8 C-0.67 5.36 -0.34 2.72 0 0 Z " fill="#1A1B1B" transform="translate(388,400)"/>
<path d="M0 0 C0 0.66 0 1.32 0 2 C-1.32 2 -2.64 2 -4 2 C-4 2.66 -4 3.32 -4 4 C-3.01 4.33 -2.02 4.66 -1 5 C-2.32 5.33 -3.64 5.66 -5 6 C7.87 6.5 7.87 6.5 21 7 C21 7.33 21 7.66 21 8 C9.45 8 -2.1 8 -14 8 C-11.79 3.59 -11.35 3.34 -7 1.75 C-6.11 1.41 -5.23 1.08 -4.31 0.73 C-2 0 -2 0 0 0 Z " fill="#D8DAD9" transform="translate(293,171)"/>
<path d="M0 0 C0.33 0 0.66 0 1 0 C1.03 4.05 1.04 8.11 1.05 12.16 C1.06 13.53 1.07 14.9 1.08 16.28 C1.13 24.91 0.9 33.41 0 42 C-0.33 42 -0.66 42 -1 42 C-2.32 29.29 -3.33 16.78 -3 4 C-2.67 4 -2.34 4 -2 4 C-1.67 8.62 -1.34 13.24 -1 18 C-0.5 9.09 -0.5 9.09 0 0 Z " fill="#414141" transform="translate(440,206)"/>
<path d="M0 0 C0.33 0 0.66 0 1 0 C1.33 9.9 1.66 19.8 2 30 C2.33 30 2.66 30 3 30 C3 32.64 3 35.28 3 38 C3.66 38 4.32 38 5 38 C4.67 39.32 4.34 40.64 4 42 C4 41.01 4 40.02 4 39 C3.34 39 2.68 39 2 39 C1.67 40.32 1.34 41.64 1 43 C0 42 0 42 -0.11 38.03 C-0.11 36.26 -0.11 34.49 -0.1 32.71 C-0.1 31.78 -0.09 30.85 -0.09 29.89 C-0.09 26.91 -0.08 23.92 -0.06 20.94 C-0.06 18.92 -0.05 16.9 -0.05 14.88 C-0.04 9.92 -0.02 4.96 0 0 Z " fill="#BDBDBD" transform="translate(430,250)"/>
<path d="M0 0 C0.84 0 1.69 0.01 2.56 0.01 C3.87 0.02 3.87 0.02 5.2 0.04 C6.09 0.04 6.98 0.04 7.89 0.05 C10.08 0.06 12.27 0.08 14.45 0.1 C14.78 1.09 15.11 2.08 15.45 3.1 C7.53 3.1 -0.39 3.1 -8.55 3.1 C-8.55 2.44 -8.55 1.78 -8.55 1.1 C-5.62 0.26 -3.04 -0.02 0 0 Z " fill="#DADCDB" transform="translate(376.546875,193.90234375)"/>
<path d="M0 0 C5.47 4.59 10.86 9.12 15 15 C13.26 15.7 13.26 15.7 11 16 C8.89 14.71 8.89 14.71 6.81 12.81 C6.12 12.2 5.42 11.59 4.71 10.96 C2.89 8.87 2.64 7.61 2 5 C1.01 4.67 0.02 4.34 -1 4 C-0.67 2.68 -0.34 1.36 0 0 Z " fill="#0B0B0B" transform="translate(167,336)"/>
<path d="M0 0 C2.65 2.65 2.78 4.3 3 8 C1.4 11.53 0.26 12.83 -3 15 C-4.21 18.05 -4.21 18.05 -5 21 C-5.66 21 -6.32 21 -7 21 C-4.96 13.88 -2.6 6.93 0 0 Z " fill="#EBEBEB" transform="translate(428,346)"/>
<path d="M0 0 C0.66 0.33 1.32 0.66 2 1 C1.67 1.66 1.34 2.32 1 3 C6.61 3.33 12.22 3.66 18 4 C18 4.33 18 4.66 18 5 C16.72 5.06 15.44 5.12 14.12 5.18 C12.42 5.27 10.71 5.35 9 5.44 C8.16 5.48 7.32 5.52 6.46 5.56 C1.26 5.82 -3.84 6.29 -9 7 C-9 6.01 -9 5.02 -9 4 C-7.55 3.3 -6.09 2.62 -4.62 1.94 C-3.41 1.36 -3.41 1.36 -2.16 0.78 C-1.45 0.52 -0.74 0.26 0 0 Z " fill="#D5D5D5" transform="translate(239,96)"/>
<path d="M0 0 C0.33 1.32 0.66 2.64 1 4 C1.66 4 2.32 4 3 4 C2.67 19.51 2.34 35.02 2 51 C1.67 51 1.34 51 1 51 C0.67 34.17 0.34 17.34 0 0 Z " fill="#9E9E9E" transform="translate(441,237)"/>
<path d="M0 0 C0 1.32 0 2.64 0 4 C-0.99 4 -1.98 4 -3 4 C-3 4.66 -3 5.32 -3 6 C-6.29 6.8 -7.71 7.1 -11 6 C-11.7 5.86 -12.4 5.71 -13.12 5.56 C-13.74 5.38 -14.36 5.19 -15 5 C-15.33 4.34 -15.66 3.68 -16 3 C-14.08 2.49 -12.17 2 -10.25 1.5 C-8.65 1.08 -8.65 1.08 -7.02 0.66 C-4 0 -4 0 0 0 Z " fill="#E6E8E7" transform="translate(310,167)"/>
<path d="M0 0 C0.66 0.33 1.32 0.66 2 1 C1.01 1.33 0.02 1.66 -1 2 C-1.33 2.66 -1.66 3.32 -2 4 C-2.99 4.66 -3.98 5.32 -5 6 C-5.45 6.68 -5.91 7.36 -6.38 8.06 C-8.43 10.51 -9.89 10.66 -13 11 C-13.99 9.68 -14.98 8.36 -16 7 C-13.38 5.8 -10.75 4.62 -8.12 3.44 C-7.01 2.92 -7.01 2.92 -5.86 2.4 C-3.93 1.54 -1.97 0.76 0 0 Z " fill="#E2E2E2" transform="translate(340,468)"/>
<path d="M0 0 C-3.01 3.01 -5.82 2.6 -10 3 C-10.33 3.99 -10.66 4.98 -11 6 C-12.65 6.33 -14.3 6.66 -16 7 C-16 7.66 -16 8.32 -16 9 C-16.99 9 -17.98 9 -19 9 C-19 8.01 -19 7.02 -19 6 C-16.95 4.43 -16.95 4.43 -14.25 2.88 C-13.37 2.36 -12.49 1.84 -11.58 1.3 C-7.25 -0.89 -4.71 -1.18 0 0 Z " fill="#1E1E1E" transform="translate(286,336)"/>
<path d="M0 0 C0.99 0 1.98 0 3 0 C2.86 3.4 2.71 6.79 2.56 10.19 C2.52 11.15 2.48 12.11 2.44 13.1 C2.4 14.03 2.36 14.96 2.32 15.92 C2.28 16.77 2.24 17.63 2.21 18.5 C1.99 21.06 1.55 23.49 1 26 C0.67 26 0.34 26 0 26 C0 17.42 0 8.84 0 0 Z " fill="#040404" transform="translate(130,204)"/>
<path d="M0 0 C0.66 0.33 1.32 0.66 2 1 C2 1.99 2 2.98 2 4 C2.99 2.68 3.98 1.36 5 0 C6.23 2.46 6.07 4.28 6 7 C4.68 6.67 3.36 6.34 2 6 C2.33 7.32 2.66 8.64 3 10 C2.34 10 1.68 10 1 10 C1.33 10.99 1.66 11.98 2 13 C0.68 13 -0.64 13 -2 13 C-1.71 10.98 -1.41 8.96 -1.12 6.95 C-0.83 4.92 -0.83 4.92 -2 3 C-1.34 3 -0.68 3 0 3 C0 2.01 0 1.02 0 0 Z " fill="#FDFDFD" transform="translate(421,192)"/>
<path d="M0 0 C0.47 0.54 0.95 1.07 1.44 1.62 C4.4 4.37 7.57 6.4 10.98 8.54 C13 10 13 10 15 13 C14.62 15.19 14.62 15.19 14 17 C12.68 16.34 11.36 15.68 10 15 C10 14.01 10 13.02 10 12 C7.8 9.38 5.68 7.8 2.75 6 C1.84 5.34 0.94 4.68 0 4 C0 2.68 0 1.36 0 0 Z " fill="#CECECE" transform="translate(414,175)"/>
<path d="M0 0 C0.66 0 1.32 0 2 0 C2.32 2.25 2.32 2.25 2 5 C-0.23 7.1 -0.23 7.1 -3.19 9.06 C-6.92 11.59 -10.52 14.14 -14 17 C-14.66 16.67 -15.32 16.34 -16 16 C-15.25 15.32 -14.5 14.65 -13.73 13.95 C-12.74 13.05 -11.74 12.15 -10.75 11.25 C-9.78 10.37 -8.8 9.49 -7.8 8.58 C-3.34 4.73 -3.34 4.73 0 0 Z " fill="#DCDCDC" transform="translate(200,118)"/>
<path d="M0 0 C3.3 0.33 6.6 0.66 10 1 C10.33 3.31 10.66 5.62 11 8 C11.99 8 12.98 8 14 8 C14 9.65 14 11.3 14 13 C12.06 12.31 12.06 12.31 10 11 C9.86 10.17 9.71 9.35 9.56 8.5 C9.38 7.67 9.19 6.85 9 6 C6.66 4.88 6.66 4.88 4 4 C1.69 1.88 1.69 1.88 0 0 Z " fill="#EFEFEF" transform="translate(362,107)"/>
<path d="M0 0 C0.77 0.34 0.77 0.34 1.56 0.69 C-0.9 3.63 -3.21 4.49 -6.88 5.5 C-7.82 5.77 -8.77 6.05 -9.75 6.33 C-12.83 6.74 -13.85 6.29 -16.44 4.69 C-17.43 4.36 -18.42 4.03 -19.44 3.69 C-19.44 3.03 -19.44 2.37 -19.44 1.69 C-18.8 1.79 -18.16 1.9 -17.5 2.01 C-11.37 2.89 -11.37 2.89 -5.56 1.19 C-2.44 -0.31 -2.44 -0.31 0 0 Z " fill="#1C1C1C" transform="translate(297.4375,104.3125)"/>
<path d="M0 0 C0.33 0.99 0.66 1.98 1 3 C0.18 3.76 -0.65 4.53 -1.5 5.31 C-4.34 7.75 -4.34 7.75 -4 11 C-5.11 11.34 -5.11 11.34 -6.25 11.69 C-9.51 13.24 -10.93 15.09 -13 18 C-13.66 17.01 -14.32 16.02 -15 15 C-14.25 14.34 -13.5 13.67 -12.73 12.99 C-11.74 12.1 -10.74 11.2 -9.75 10.31 C-8.29 9.01 -8.29 9.01 -6.8 7.68 C-4.26 5.25 -2.11 2.79 0 0 Z " fill="#1E1E1E" transform="translate(402,336)"/>
<path d="M0 0 C0.47 0.41 0.94 0.82 1.43 1.24 C2.05 1.78 2.67 2.32 3.31 2.88 C4.23 3.68 4.23 3.68 5.18 4.49 C7.7 6.58 9.88 7.96 13 9 C12.67 9.66 12.34 10.32 12 11 C13.65 12.65 15.3 14.3 17 16 C12.72 15.52 10.93 12.93 8 10 C5.83 9.14 5.83 9.14 4 9 C3.9 8.4 3.79 7.8 3.69 7.19 C2.91 4.7 1.85 3.77 0 2 C0 1.34 0 0.68 0 0 Z " fill="#070707" transform="translate(184,429)"/>
<path d="M0 0 C2.24 3.36 3.69 6.84 5.19 10.56 C5.47 11.25 5.76 11.93 6.05 12.64 C6.76 14.4 7.39 16.2 8 18 C7.67 18.66 7.34 19.32 7 20 C6.18 18.9 5.37 17.79 4.56 16.69 C4.11 16.07 3.66 15.46 3.19 14.82 C2 13 2 13 1 10 C0.63 9.03 0.26 8.06 -0.12 7.06 C-0.98 4.06 -1.1 2.85 0 0 Z " fill="#E4E4E4" transform="translate(153,377)"/>
<path d="M0 0 C0 0.33 0 0.66 0 1 C-2.64 1.33 -5.28 1.66 -8 2 C-8 2.33 -8 2.66 -8 3 C-10.62 3.25 -13.25 3.47 -15.88 3.69 C-16.62 3.76 -17.37 3.83 -18.14 3.91 C-20.3 4.07 -20.3 4.07 -24 4 C-24.66 3.01 -25.32 2.02 -26 1 C-17.33 -0.17 -8.73 -0.1 0 0 Z " fill="#CECECE" transform="translate(188,230)"/>
<path d="M0 0 C2 3 2 3 2 5 C3.32 5 4.64 5 6 5 C6 5.99 6 6.98 6 8 C0.07 6.83 -5.39 5.24 -11 3 C-7.9 2.12 -6.09 2.01 -3 3 C-2.67 2.34 -2.34 1.68 -2 1 C-1.34 1.33 -0.68 1.66 0 2 C0 1.34 0 0.68 0 0 Z " fill="#E2E2E2" transform="translate(256,465)"/>
<path d="M0 0 C1.49 0.99 1.49 0.99 3 2 C3.66 1.67 4.32 1.34 5 1 C6.76 4.09 7 5.23 7 9 C2.25 8.12 2.25 8.12 0 7 C-0.69 4 -0.69 4 -1 1 C-0.67 0.67 -0.34 0.34 0 0 Z " fill="#FAFAFA" transform="translate(163,385)"/>
<path d="M0 0 C2 0 2 0 3.59 1.54 C7.02 5.55 10.2 9.52 13 14 C10 14 10 14 7.52 11.7 C6.61 10.7 5.71 9.7 4.81 8.69 C4.35 8.19 3.89 7.69 3.41 7.17 C0 3.38 0 3.38 0 0 Z " fill="#1D1D1D" transform="translate(180,406)"/>
<path d="M0 0 C0.33 0 0.66 0 1 0 C1.06 1.24 1.12 2.48 1.18 3.76 C1.27 5.4 1.35 7.05 1.44 8.69 C1.48 9.5 1.52 10.32 1.56 11.16 C1.73 14.5 1.91 17.62 2.66 20.89 C3 23 3 23 1 26 C0.34 26 -0.32 26 -1 26 C-0.67 17.42 -0.34 8.84 0 0 Z " fill="#323232" transform="translate(132,288)"/>
<path d="M0 0 C2.18 1.01 4.04 2.03 5.94 3.5 C7.98 5.15 7.98 5.15 10.69 5.88 C11.45 6.25 12.21 6.62 13 7 C13.81 9.62 13.81 9.62 14 12 C8.85 9.27 4.03 6.28 0 2 C0 1.34 0 0.68 0 0 Z " fill="#1B1B1B" transform="translate(194,421)"/>
<path d="M0 0 C2.31 0 4.62 0 7 0 C7 0.66 7 1.32 7 2 C7.66 2 8.32 2 9 2 C10.69 3.81 10.69 3.81 12 6 C11.67 6.99 11.34 7.98 11 9 C9.16 7.69 7.33 6.38 5.5 5.06 C4.48 4.33 3.46 3.6 2.41 2.85 C1.61 2.24 0.82 1.63 0 1 C0 0.67 0 0.34 0 0 Z " fill="#E7E7E7" transform="translate(190,357)"/>
<path d="M0 0 C1.12 3.75 1.12 3.75 0 6 C0.66 6 1.32 6 2 6 C2 5.34 2 4.68 2 4 C2.66 4 3.32 4 4 4 C4 4.66 4 5.32 4 6 C4.66 6 5.32 6 6 6 C6 7.32 6 8.64 6 10 C3 10 3 10 1.31 8.5 C0.88 8 0.45 7.51 0 7 C-0.66 8.65 -1.32 10.3 -2 12 C-3.41 9.18 -2.51 7.83 -1.56 4.88 C-1.28 3.96 -0.99 3.05 -0.69 2.12 C-0.46 1.42 -0.24 0.72 0 0 Z " fill="#DEDEDE" transform="translate(426,311)"/>
<path d="M0 0 C1.32 0.33 2.64 0.66 4 1 C4.33 2.32 4.66 3.64 5 5 C1.87 6.86 -0.37 7.2 -4 7 C-3.67 6.01 -3.34 5.02 -3 4 C-2.01 4 -1.02 4 0 4 C0 2.68 0 1.36 0 0 Z " fill="#F1F1F1" transform="translate(141,194)"/>
<path d="M0 0 C-4.56 3.04 -8.47 5 -14 5 C-14 4.34 -14 3.68 -14 3 C-10.01 -0.83 -5.22 -1.81 0 0 Z " fill="#1B1C1C" transform="translate(332,448)"/>
<path d="M0 0 C0.99 0.33 1.98 0.66 3 1 C3 8.26 3 15.52 3 23 C2.67 23 2.34 23 2 23 C1.96 21.83 1.93 20.66 1.89 19.46 C1.82 17.91 1.75 16.36 1.69 14.81 C1.66 14.04 1.64 13.27 1.62 12.48 C1.4 7.86 0.86 4.83 -2 1 C-1.34 0.67 -0.68 0.34 0 0 Z " fill="#C4C4C4" transform="translate(427,209)"/>
<path d="M0 0 C0.89 0.1 1.77 0.21 2.69 0.31 C0.71 3.28 0.71 3.28 -1.31 6.31 C-3.62 5.98 -5.93 5.65 -8.31 5.31 C-4.13 0.39 -4.13 0.39 0 0 Z " fill="#EDEDED" transform="translate(159.3125,231.6875)"/>
<path d="M0 0 C3.46 1.98 3.46 1.98 7 4 C6.67 5.65 6.34 7.3 6 9 C3.69 9 1.38 9 -1 9 C-0.67 8.34 -0.34 7.68 0 7 C1.65 7 3.3 7 5 7 C3.61 4.22 1.84 4.02 -1 3 C-0.67 2.01 -0.34 1.02 0 0 Z " fill="#1D1D1D" transform="translate(417,181)"/>
<path d="M0 0 C3.6 0.56 5 1.75 7.25 4.56 C8.03 5.52 8.03 5.52 8.83 6.5 C9.21 7 9.6 7.49 10 8 C9.01 8.33 8.02 8.66 7 9 C5.83 7.88 4.66 6.75 3.5 5.62 C2.85 5 2.2 4.37 1.53 3.73 C0 2 0 2 0 0 Z " fill="#C7C7C7" transform="translate(385,135)"/>
<path d="M0 0 C2.64 1.98 5.28 3.96 8 6 C5 8 5 8 2.31 7.62 C1.55 7.42 0.79 7.21 0 7 C-0.93 3.99 -1.04 3.13 0 0 Z " fill="#EBEBEB" transform="translate(198,447)"/>
<path d="M0 0 C-0.99 0.33 -1.98 0.66 -3 1 C-3 1.99 -3 2.98 -3 4 C-8.28 3.34 -13.56 2.68 -19 2 C-19 1.67 -19 1.34 -19 1 C-12.64 0.35 -6.4 -0.12 0 0 Z " fill="#C3C4C4" transform="translate(424,191)"/>
<path d="M0 0 C2.14 2.14 2.43 3.13 3 6 C1.68 6.33 0.36 6.66 -1 7 C-1.33 8.65 -1.66 10.3 -2 12 C-3.12 10.27 -3.12 10.27 -4 8 C-3.32 5.86 -3.32 5.86 -2.12 3.75 C-1.74 3.04 -1.35 2.34 -0.95 1.61 C-0.63 1.08 -0.32 0.55 0 0 Z " fill="#202020" transform="translate(168,154)"/>
<path d="M0 0 C4.27 1.58 6.27 4.51 9 8 C5.87 9.04 5.01 8.93 2 8 C1.86 7.24 1.71 6.47 1.56 5.69 C1.04 2.92 1.04 2.92 0 0 Z " fill="#EAEAEA" transform="translate(393,143)"/>
<path d="M0 0 C0.84 0.05 1.69 0.1 2.56 0.15 C3.43 0.2 4.3 0.26 5.2 0.32 C6.54 0.39 6.54 0.39 7.89 0.47 C10.08 0.6 12.27 0.74 14.45 0.88 C14.45 1.21 14.45 1.54 14.45 1.88 C13.2 1.94 11.95 2 10.66 2.06 C9.01 2.15 7.35 2.23 5.7 2.32 C4.88 2.36 4.05 2.4 3.2 2.44 C2.4 2.48 1.6 2.52 0.78 2.56 C0.05 2.6 -0.69 2.64 -1.44 2.67 C-3.56 2.88 -5.5 3.31 -7.55 3.88 C-7.88 2.89 -8.21 1.9 -8.55 0.88 C-5.57 -0 -3.09 -0.19 0 0 Z " fill="#212121" transform="translate(242.546875,101.12109375)"/>
<path d="M0 0 C1.71 1.28 3.37 2.62 5 4 C5 4.66 5 5.32 5 6 C5.62 6.27 6.24 6.54 6.88 6.81 C9 8 9 8 11 11 C8 11 8 11 5.96 9.36 C5.25 8.64 4.54 7.92 3.81 7.19 C2.74 6.13 2.74 6.13 1.64 5.04 C0 3 0 3 0 0 Z " fill="#2E2E2E" transform="translate(184,426)"/>
<path d="M0 0 C0.33 0 0.66 0 1 0 C1.33 1.65 1.66 3.3 2 5 C2.33 5 2.66 5 3 5 C2.67 10.28 2.34 15.56 2 21 C1.67 21 1.34 21 1 21 C0.15 13.97 -0.12 7.08 0 0 Z " fill="#242524" transform="translate(422,251)"/>
<path d="M0 0 C2.56 1.5 2.56 1.5 5 4 C5.15 6.88 4.62 9.15 4 12 C3.75 11.46 3.5 10.93 3.25 10.38 C1.7 7.44 -0.13 4.74 -2 2 C-1.34 2 -0.68 2 0 2 C0 1.34 0 0.68 0 0 Z " fill="#111111" transform="translate(426,180)"/>
<path d="M0 0 C-1.16 3.91 -2.36 6.87 -5 10 C-5.62 7.19 -5.62 7.19 -6 4 C-3.33 0 -3.33 0 0 0 Z " fill="#E9E9E9" transform="translate(160,155)"/>
<path d="M0 0 C1.07 0.29 2.14 0.57 3.24 0.87 C4.05 1.1 4.85 1.33 5.69 1.56 C5.36 2.22 5.03 2.88 4.69 3.56 C4.04 3.43 3.38 3.3 2.71 3.16 C-1.95 2.22 -6.61 1.3 -11.31 0.56 C-11.31 0.23 -11.31 -0.1 -11.31 -0.44 C-7.08 -1.62 -4.21 -1.16 0 0 Z " fill="#1D1D1D" transform="translate(271.3125,103.4375)"/>
<path d="M0 0 C-3.53 2.12 -6.94 2.53 -11 3 C-11 2.01 -11 1.02 -11 0 C-6.53 -1.87 -4.34 -2.3 0 0 Z " fill="#1B1B1B" transform="translate(300,458)"/>
<path d="M0 0 C4.88 4.75 4.88 4.75 6 7 C5.34 7.66 4.68 8.32 4 9 C4 8.34 4 7.68 4 7 C2.35 6.67 0.7 6.34 -1 6 C-1.33 6.66 -1.66 7.32 -2 8 C-1.12 2.25 -1.12 2.25 0 0 Z " fill="#DBDBDB" transform="translate(418,338)"/>
<path d="M0 0 C2.77 -0.08 5.54 -0.14 8.31 -0.19 C9.1 -0.21 9.88 -0.24 10.69 -0.26 C11.45 -0.27 12.21 -0.28 12.99 -0.29 C14.03 -0.32 14.03 -0.32 15.1 -0.34 C17.54 0.1 18.43 1.13 20 3 C19.34 4.32 18.68 5.64 18 7 C17.34 5.35 16.68 3.7 16 2 C10.72 1.67 5.44 1.34 0 1 C0 0.67 0 0.34 0 0 Z " fill="#DBDCDB" transform="translate(400,197)"/>
<path d="M0 0 C2.3 3.45 2.34 4.95 2 9 C1.34 9.66 0.68 10.32 0 11 C-0.99 10.67 -1.98 10.34 -3 10 C-2.01 6.7 -1.02 3.4 0 0 Z " fill="#E7E7E7" transform="translate(420,367)"/>
<path d="M0 0 C0.99 0.33 1.98 0.66 3 1 C0.03 3.97 -2.94 6.94 -6 10 C-6.33 9.01 -6.66 8.02 -7 7 C-4.69 4.69 -2.38 2.38 0 0 Z " fill="#B8B8B8" transform="translate(182,135)"/>
<path d="M0 0 C1.65 0 3.3 0 5 0 C5.23 0.58 5.45 1.15 5.69 1.75 C7.33 4.57 9.4 6.08 12 8 C11.67 8.66 11.34 9.32 11 10 C9.16 8.52 7.33 7.04 5.5 5.56 C4.48 4.74 3.46 3.92 2.41 3.07 C1.61 2.38 0.82 1.7 0 1 C0 0.67 0 0.34 0 0 Z " fill="#D7D7D7" transform="translate(323,360)"/>
<path d="M0 0 C0.99 0.33 1.98 0.66 3 1 C3 2.65 3 4.3 3 6 C0 7 0 7 -2.19 6.06 C-2.79 5.71 -3.38 5.36 -4 5 C-3.34 4.36 -2.68 3.72 -2 3.06 C0.12 1.36 0.12 1.36 0 0 Z " fill="#080808" transform="translate(359,449)"/>
<path d="M0 0 C2.83 3.2 3.52 5.78 4 10 C3.01 10 2.02 10 1 10 C0.22 6.59 -0.1 3.49 0 0 Z " fill="#E4E4E4" transform="translate(410,165)"/>
<path d="M0 0 C0.14 0.78 0.29 1.57 0.44 2.38 C0.88 4.96 0.88 4.96 2 7 C0.35 7.66 -1.3 8.32 -3 9 C-3.66 8.34 -4.32 7.68 -5 7 C-4.01 6.34 -3.02 5.68 -2 5 C-2.66 3.68 -3.32 2.36 -4 1 C-2 0 -2 0 0 0 Z " fill="#1F1F1F" transform="translate(342,460)"/>
<path d="M0 0 C3.49 1.11 6.77 2.26 10 4 C9.67 4.99 9.34 5.98 9 7 C5.18 5.44 2.81 2.96 0 0 Z " fill="#E6E6E6" transform="translate(201,441)"/>
<path d="M0 0 C1.18 0.93 2.34 1.87 3.5 2.81 C4.15 3.33 4.8 3.86 5.47 4.39 C7 6 7 6 7 9 C5.85 8.21 4.71 7.42 3.56 6.62 C2.92 6.18 2.29 5.74 1.63 5.29 C0 4 0 4 -1 2 C-0.67 1.34 -0.34 0.68 0 0 Z " fill="#313131" transform="translate(167,336)"/>
<path d="M0 0 C0 0.33 0 0.66 0 1 C-1.11 1.31 -2.23 1.62 -3.38 1.94 C-6.79 2.82 -6.79 2.82 -9 4 C-8.67 2.35 -8.34 0.7 -8 -1 C-4.6 -2.22 -3.07 -1.86 0 0 Z " fill="#2B2B2B" transform="translate(220,105)"/>
<path d="M0 0 C0.33 0.99 0.66 1.98 1 3 C-0.32 3 -1.64 3 -3 3 C-3 2.34 -3 1.68 -3 1 C-3.54 1.35 -4.07 1.7 -4.62 2.06 C-7.73 3.29 -9.79 2.73 -13 2 C-13 1.67 -13 1.34 -13 1 C-8.59 -0.1 -4.52 -0.08 0 0 Z " fill="#D6D6D6" transform="translate(271,88)"/>
<path d="M0 0 C0 0.99 0 1.98 0 3 C-0.66 3 -1.32 3 -2 3 C-2.33 3.99 -2.66 4.98 -3 6 C-5.56 7.19 -5.56 7.19 -8 8 C-8.33 7.34 -8.66 6.68 -9 6 C-7.88 4.99 -6.75 4 -5.62 3 C-4.69 2.16 -4.69 2.16 -3.73 1.31 C-2 0 -2 0 0 0 Z " fill="#222222" transform="translate(246,362)"/>
<path d="M0 0 C0.33 1.33 0.67 2.67 1 4 C1.23 4.7 1.45 5.4 1.69 6.12 C1.79 6.74 1.89 7.36 2 8 C0.33 9.67 -1.33 11.33 -3 13 C-2.45 8.43 -1.58 4.33 0 0 Z " fill="#DCDCDC" transform="translate(422,325)"/>
<path d="M0 0 C0.66 0 1.32 0 2 0 C2.75 1.75 2.75 1.75 3 4 C1.06 6.25 1.06 6.25 -1 8 C-1.99 7.67 -2.98 7.34 -4 7 C-2.68 4.69 -1.36 2.38 0 0 Z " fill="#282828" transform="translate(199,113)"/>
<path d="M0 0 C3.3 0.99 6.6 1.98 10 3 C9.67 3.66 9.34 4.32 9 5 C5.44 4.39 2.32 3.42 -1 2 C-0.67 1.34 -0.34 0.68 0 0 Z " fill="#1B1B1B" transform="translate(249,469)"/>
<path d="M0 0 C2.97 0.99 5.94 1.98 9 3 C8.01 4.49 8.01 4.49 7 6 C4.36 4.68 1.72 3.36 -1 2 C-0.67 1.34 -0.34 0.68 0 0 Z " fill="#262626" transform="translate(231,467)"/>
<path d="M0 0 C2.31 2.31 2.5 3.48 3.12 6.62 C3.29 7.44 3.46 8.26 3.63 9.1 C3.81 10.04 3.81 10.04 4 11 C3.34 11 2.68 11 2 11 C1.01 7.7 0.02 4.4 -1 1 C-0.67 0.67 -0.34 0.34 0 0 Z " fill="#1D1D1D" transform="translate(165,371)"/>
<path d="M0 0 C0 0.66 0 1.32 0 2 C-3.3 2.66 -6.6 3.32 -10 4 C-4.75 -1.43 -4.75 -1.43 0 0 Z " fill="#191919" transform="translate(156,182)"/>
<path d="M0 0 C0.33 0.66 0.66 1.32 1 2 C1.66 2.33 2.32 2.66 3 3 C-4.5 4.25 -4.5 4.25 -9 2 C-6.03 1.34 -3.06 0.68 0 0 Z " fill="#1C1C1C" transform="translate(361,155)"/>
<path d="M0 0 C1.32 0 2.64 0 4 0 C4 0.99 4 1.98 4 3 C4.99 3 5.98 3 7 3 C7 4.65 7 6.3 7 8 C5.06 7.31 5.06 7.31 3 6 C2.38 3.44 2.38 3.44 2 1 C1.34 0.67 0.68 0.34 0 0 Z " fill="#DBDBDB" transform="translate(369,112)"/>
<path d="M0 0 C-2 3 -2 3 -5 3.81 C-5.99 3.87 -6.98 3.94 -8 4 C-8.66 3.34 -9.32 2.68 -10 2 C-8.71 1.47 -7.42 0.95 -6.12 0.44 C-5.41 0.15 -4.69 -0.14 -3.95 -0.44 C-2 -1 -2 -1 0 0 Z " fill="#E1E1E1" transform="translate(334,449)"/>
<path d="M0 0 C0.99 0.99 1.98 1.98 3 3 C2.34 4.32 1.68 5.64 1 7 C0.01 7 -0.98 7 -2 7 C-1.34 4.69 -0.68 2.38 0 0 Z " fill="#0A0A0A" transform="translate(387,424)"/>
<path d="M0 0 C0.33 0 0.66 0 1 0 C1.06 0.71 1.12 1.42 1.18 2.15 C1.27 3.07 1.35 3.99 1.44 4.94 C1.52 5.85 1.6 6.77 1.68 7.71 C1.76 9.96 1.76 9.96 3 11 C3.04 12.67 3.04 14.33 3 16 C-0.13 12.61 -0.34 10.29 -0.19 5.75 C-0.15 4.13 -0.15 4.13 -0.11 2.48 C-0.07 1.66 -0.04 0.84 0 0 Z " fill="#3A3A3A" transform="translate(128,240)"/>
<path d="M0 0 C0.99 0.33 1.98 0.66 3 1 C2.01 2.49 2.01 2.49 1 4 C0.62 5.66 0.27 7.32 0 9 C-0.66 9 -1.32 9 -2 9 C-2.25 3.38 -2.25 3.38 0 0 Z " fill="#EBEBEB" transform="translate(144,184)"/>
<path d="M0 0 C1.91 0.23 1.91 0.23 3.91 2.23 C-2.49 3.46 -2.49 3.46 -5.53 2.29 C-6.04 1.94 -6.56 1.59 -7.09 1.23 C-5.19 -0.66 -2.52 0.05 0 0 Z " fill="#212322" transform="translate(314.08984375,163.76953125)"/>
<path d="M0 0 C7.57 1.86 7.57 1.86 10 5 C9.01 5.5 9.01 5.5 8 6 C6.31 5.05 4.64 4.04 3 3 C2.01 2.67 1.02 2.34 0 2 C0 1.34 0 0.68 0 0 Z " fill="#1B1B1B" transform="translate(364,122)"/>
<path d="M0 0 C0.99 0.33 1.98 0.66 3 1 C3.99 1 4.98 1 6 1 C6.33 2.32 6.66 3.64 7 5 C3.31 4.5 1.4 3.9 -1 1 C-0.67 0.67 -0.34 0.34 0 0 Z " fill="#E7E7E7" transform="translate(349,99)"/>
<path d="M0 0 C3.62 0.38 3.62 0.38 7 1 C7 1.99 7 2.98 7 4 C2.55 3.01 2.55 3.01 -2 2 C-1.34 1.34 -0.68 0.68 0 0 Z " fill="#232323" transform="translate(267,456)"/>
<path d="M0 0 C0.66 0.33 1.32 0.66 2 1 C-1.75 4 -1.75 4 -4 4 C-4.33 4.99 -4.66 5.98 -5 7 C-5.99 7 -6.98 7 -8 7 C-6.88 3.65 -6.49 3.38 -3.56 1.75 C-2.39 1.17 -1.21 0.6 0 0 Z " fill="#DCDEDD" transform="translate(361,433)"/>
<path d="M0 0 C0.99 0 1.98 0 3 0 C3.66 2.31 4.32 4.62 5 7 C3.68 7 2.36 7 1 7 C0.67 4.69 0.34 2.38 0 0 Z " fill="#DEDEDE" transform="translate(138,343)"/>
<path d="M0 0 C-0.99 0.66 -1.98 1.32 -3 2 C-3.99 1.67 -4.98 1.34 -6 1 C-6.33 1.66 -6.66 2.32 -7 3 C-9.97 2.5 -9.97 2.5 -13 2 C-13 1.67 -13 1.34 -13 1 C-11.59 0.63 -10.17 0.28 -8.75 -0.06 C-7.96 -0.26 -7.17 -0.46 -6.36 -0.66 C-3.9 -1.01 -2.34 -0.77 0 0 Z " fill="#C5C5C5" transform="translate(386,154)"/>
<path d="M0 0 C2.31 0.19 2.31 0.19 5 1 C6.81 3.56 6.81 3.56 8 6 C4.74 5.65 3.98 4.98 1.75 2.44 C1.17 1.63 0.6 0.83 0 0 Z " fill="#212121" transform="translate(381,129)"/>
<path d="M0 0 C2.56 0.12 2.56 0.12 4.56 1.12 C4.23 2.12 3.9 3.11 3.56 4.12 C-1.19 3.38 -1.19 3.38 -3.44 1.12 C-2.44 0.12 -2.44 0.12 0 0 Z " fill="#080909" transform="translate(365.4375,445.875)"/>
<path d="M0 0 C0.66 0 1.32 0 2 0 C3.39 1.96 4.73 3.96 6 6 C5.67 6.66 5.34 7.32 5 8 C4.66 7.04 4.66 7.04 4.31 6.06 C3.15 3.73 3.15 3.73 0.38 3.25 C-0.41 3.17 -1.19 3.08 -2 3 C-1 1 -1 1 0 0 Z " fill="#DEDEDE" transform="translate(174,401)"/>
<path d="M0 0 C0.99 0 1.98 0 3 0 C3.66 2.64 4.32 5.28 5 8 C4.01 8.5 4.01 8.5 3 9 C2.01 6.03 1.02 3.06 0 0 Z " fill="#E2E2E2" transform="translate(141,351)"/>
<path d="M0 0 C2.24 3.35 2.17 3.91 1.62 7.69 C1.51 8.5 1.4 9.3 1.29 10.14 C1.19 10.75 1.1 11.37 1 12 C-1.24 8.65 -1.17 8.09 -0.62 4.31 C-0.51 3.5 -0.4 2.7 -0.29 1.86 C-0.19 1.25 -0.1 0.63 0 0 Z " fill="#202020" transform="translate(417,296)"/>
<path d="M0 0 C0 0.66 0 1.32 0 2 C-1.32 2 -2.64 2 -4 2 C-4 2.66 -4 3.32 -4 4 C-3.01 4.33 -2.02 4.66 -1 5 C-2.65 5 -4.3 5 -6 5 C-6 4.34 -6 3.68 -6 3 C-6.66 2.67 -7.32 2.34 -8 2 C-2.25 0 -2.25 0 0 0 Z " fill="#DFE1E0" transform="translate(293,171)"/>
<path d="M0 0 C0.33 0.66 0.66 1.32 1 2 C-5.4 3.23 -5.4 3.23 -8.44 2.06 C-8.95 1.71 -9.47 1.36 -10 1 C-6.62 -0.04 -3.52 -0.08 0 0 Z " fill="#191919" transform="translate(350,158)"/>
<path d="M0 0 C2.48 0.99 2.48 0.99 5 2 C4.67 2.66 4.34 3.32 4 4 C-0.45 3.01 -0.45 3.01 -5 2 C-3.68 1.67 -2.36 1.34 -1 1 C-0.67 0.67 -0.34 0.34 0 0 Z " fill="#DDDDDD" transform="translate(322,85)"/>
<path d="M0 0 C-1.32 1.32 -2.64 2.64 -4 4 C-7 3 -7 3 -9 1 C-2.25 -1.12 -2.25 -1.12 0 0 Z " fill="#DADADA" transform="translate(309,482)"/>
<path d="M0 0 C3.47 1.98 3.47 1.98 7 4 C6.67 4.99 6.34 5.98 6 7 C6 6.34 6 5.68 6 5 C5.01 5.33 4.02 5.66 3 6 C2.67 4.68 2.34 3.36 2 2 C1.34 2 0.68 2 0 2 C0 1.34 0 0.68 0 0 Z " fill="#E3E3E3" transform="translate(206,432)"/>
<path d="M0 0 C0.66 0.66 1.32 1.32 2 2 C1.62 4.62 1.62 4.62 1 7 C0.01 7 -0.98 7 -2 7 C-1.12 2.25 -1.12 2.25 0 0 Z " fill="#111111" transform="translate(424,349)"/>
<path d="M0 0 C4.25 0.47 6.2 2.97 9 6 C4.59 6 3.22 3.93 0 1 C0 0.67 0 0.34 0 0 Z " fill="#242424" transform="translate(309,350)"/>
<path d="M0 0 C0.99 0.33 1.98 0.66 3 1 C1.81 2.5 1.81 2.5 0 4 C-2.69 4.19 -2.69 4.19 -5 4 C-2.69 1.94 -2.69 1.94 0 0 Z " fill="#E7E7E7" transform="translate(347,464)"/>
<path d="M0 0 C1.46 2.65 2 3.89 2 7 C0.68 7.33 -0.64 7.66 -2 8 C-1.34 5.36 -0.68 2.72 0 0 Z " fill="#E1E1E1" transform="translate(396,393)"/>
<path d="M0 0 C3.26 1.8 4.89 2.83 7 6 C4 6 4 6 1.81 4.12 C0 2 0 2 0 0 Z " fill="#2C2C2C" transform="translate(175,345)"/>
<path d="M0 0 C0.66 0.99 1.32 1.98 2 3 C1.34 4.32 0.68 5.64 0 7 C-0.66 6.67 -1.32 6.34 -2 6 C-1.12 1.12 -1.12 1.12 0 0 Z " fill="#FEFEFE" transform="translate(145,326)"/>
<path d="M0 0 C0.83 2.89 1 4.89 1 8 C0.34 8 -0.32 8 -1 8 C-1.33 8.99 -1.66 9.98 -2 11 C-1.86 9.54 -1.71 8.08 -1.56 6.62 C-1.48 5.81 -1.4 5 -1.32 4.16 C-1 2 -1 2 0 0 Z " fill="#C6C6C6" transform="translate(150,237)"/>
</svg>
